<?xml version="1.0" encoding="UTF-8"?>
<svg version="1.1" xmlns="http://www.w3.org/2000/svg" width="230" height="83">
<path d="M0 0 C0.66 0 1.32 0 2 0 C4.79679823 11.18719292 6.8570795 21.47819264 0.91796875 31.8984375 C-4.74342112 39.73202228 -15.10105551 42.32771691 -23.8125 45.4375 C-29.03415926 47.37426089 -32.65349412 49.74682509 -36.609375 53.64453125 C-38 55 -38 55 -39 55 C-39.3238762 48.93032007 -39.52214307 44.22248799 -36 39 C-31.76901006 34.33506237 -28.35674768 30.88288162 -22 30 C-22.33 29.34 -22.66 28.68 -23 28 C-23.09505069 26.56365857 -23.13072867 25.12307525 -23.1328125 23.68359375 C-23.13474609 22.41418945 -23.13474609 22.41418945 -23.13671875 21.11914062 C-23.13285156 20.23419922 -23.12898438 19.34925781 -23.125 18.4375 C-23.12886719 17.54869141 -23.13273437 16.65988281 -23.13671875 15.74414062 C-23.13542969 14.89916016 -23.13414063 14.05417969 -23.1328125 13.18359375 C-23.13168457 12.40556396 -23.13055664 11.62753418 -23.12939453 10.82592773 C-23 9 -23 9 -22 8 C-20.00200428 7.90126184 -18.00042842 7.87028201 -16 7.875 C-14.906875 7.87242188 -13.81375 7.86984375 -12.6875 7.8671875 C-10 8 -10 8 -9 9 C-8.92755947 11.01964199 -8.91622812 13.04167124 -8.9375 15.0625 C-8.94652344 16.16722656 -8.95554687 17.27195312 -8.96484375 18.41015625 C-8.97644531 19.26480469 -8.98804687 20.11945312 -9 21 C-7.7934375 19.7625 -7.7934375 19.7625 -6.5625 18.5 C-4 16 -4 16 -3 16 C-3.05220703 14.89591797 -3.05220703 14.89591797 -3.10546875 13.76953125 C-3.38278054 3.77310137 -3.38278054 3.77310137 0 0 Z M-18 12 C-18.33 17.28 -18.66 22.56 -19 28 C-14.55392503 26.22157001 -13.0202692 25.35585467 -10 22 C-10.66 22 -11.32 22 -12 22 C-12 18.7 -12 15.4 -12 12 C-13.98 12 -15.96 12 -18 12 Z " fill="#3D4956" transform="translate(50,25)"/>
<path d="M0 0 C3.1195572 1.38685223 5.25855799 3.00189491 7.671875 5.40625 C8.66767578 6.39818359 8.66767578 6.39818359 9.68359375 7.41015625 C10.36550781 8.09980469 11.04742187 8.78945312 11.75 9.5 C12.44738281 10.18964844 13.14476562 10.87929687 13.86328125 11.58984375 C14.52199219 12.25113281 15.18070313 12.91242187 15.859375 13.59375 C16.46233398 14.19896484 17.06529297 14.80417969 17.68652344 15.42773438 C19 17 19 17 19 19 C16.3671875 19.34375 16.3671875 19.34375 13 19 C10.76809329 17.20515074 9.01779083 15.59338551 7.125 13.5 C6.62742187 12.97535156 6.12984375 12.45070313 5.6171875 11.91015625 C4.39736085 10.61995498 3.19669751 9.31168268 2 8 C-3.93822231 10.65757515 -8.44393455 14.55735677 -12 20 C-13.60465423 25.79660025 -13.09098544 31.98758645 -12.875 37.9375 C-12.82105802 40.33623225 -12.78161474 42.73367338 -12.76394653 45.13294983 C-12.74972878 46.61581334 -12.71298475 48.0986777 -12.65084839 49.58030701 C-12.55767402 54.53808742 -12.55767402 54.53808742 -14.89111328 56.97485352 C-17 58 -17 58 -19 58 C-19.17400017 52.73486959 -19.3005091 47.47143792 -19.38452148 42.20410156 C-19.4195657 40.41539331 -19.46721801 38.62688329 -19.52807617 36.83886719 C-20.0847439 20.05463358 -20.0847439 20.05463358 -15.875 15.1875 C-14.61512707 14.08748672 -13.32349134 13.02258481 -12 12 C-10.88338863 10.87809967 -9.77992117 9.74293082 -8.69140625 8.59375 C-7.65105445 7.55986001 -6.6081185 6.52856324 -5.5625 5.5 C-5.02173828 4.96375 -4.48097656 4.4275 -3.92382812 3.875 C-2.61823383 2.58095964 -1.30947004 1.29011826 0 0 Z " fill="#ED8387" transform="translate(32,4)"/>
<path d="M0 0 C5.625 1.125 5.625 1.125 8 4 C8.66 2.68 9.32 1.36 10 0 C11.65 0.33 13.3 0.66 15 1 C15 8.26 15 15.52 15 23 C13.35 23 11.7 23 10 23 C10.01160156 22.00097656 10.02320312 21.00195312 10.03515625 19.97265625 C10.04417969 18.68230469 10.05320312 17.39195313 10.0625 16.0625 C10.07410156 14.77472656 10.08570312 13.48695312 10.09765625 12.16015625 C10.36532549 9.13701597 10.36532549 9.13701597 9 8 C9 8.99 9 9.98 9 11 C8.01 11 7.02 11 6 11 C5.67 10.34 5.34 9.68 5 9 C4.67 13.62 4.34 18.24 4 23 C2.68 23 1.36 23 0 23 C0 15.41 0 7.82 0 0 Z " fill="#F1A0A3" transform="translate(60,29)"/>
<path d="M0 0 C4.33365607 0.36113801 5.79747716 1.18629935 8.75 4.3125 C9.81998249 6.68174695 9.83514717 7.89892804 9.3125 10.4375 C8.47541976 14.71591014 8.67404935 18.96643531 8.75 23.3125 C7.1 22.9825 5.45 22.6525 3.75 22.3125 C3.75 19.6725 3.75 17.0325 3.75 14.3125 C2.76 14.3125 1.77 14.3125 0.75 14.3125 C0.75 17.2825 0.75 20.2525 0.75 23.3125 C-0.9 23.3125 -2.55 23.3125 -4.25 23.3125 C-4.27887512 19.66668313 -4.29675585 16.02089537 -4.3125 12.375 C-4.32087891 11.33408203 -4.32925781 10.29316406 -4.33789062 9.22070312 C-4.34272461 7.73666992 -4.34272461 7.73666992 -4.34765625 6.22265625 C-4.35289307 5.30621338 -4.35812988 4.38977051 -4.36352539 3.44555664 C-4.17825456 -0.03554274 -3.58021622 0.34425156 0 0 Z M0.75 5.3125 C1.08 6.9625 1.41 8.6125 1.75 10.3125 C2.74 9.6525 3.73 8.9925 4.75 8.3125 C4.42 7.3225 4.09 6.3325 3.75 5.3125 C2.76 5.3125 1.77 5.3125 0.75 5.3125 Z " fill="#EC8287" transform="translate(124.25,28.6875)"/>
<path d="M0 0 C5.33581553 0.27131265 5.33581553 0.27131265 7.6875 2.1875 C9.64926104 6.39127365 9.68995371 8.77670369 8.6875 13.1875 C8.58986867 16.52238065 8.62921007 19.85202064 8.6875 23.1875 C7.3675 23.1875 6.0475 23.1875 4.6875 23.1875 C4.3575 20.2175 4.0275 17.2475 3.6875 14.1875 C2.6975 14.1875 1.7075 14.1875 0.6875 14.1875 C0.6875 17.1575 0.6875 20.1275 0.6875 23.1875 C-0.9625 23.1875 -2.6125 23.1875 -4.3125 23.1875 C-4.34137512 19.54168313 -4.35925585 15.89589537 -4.375 12.25 C-4.38337891 11.20908203 -4.39175781 10.16816406 -4.40039062 9.09570312 C-4.40522461 7.61166992 -4.40522461 7.61166992 -4.41015625 6.09765625 C-4.41539307 5.18121338 -4.42062988 4.26477051 -4.42602539 3.32055664 C-4.23855407 -0.20188837 -3.63518229 0.20576504 0 0 Z M0.6875 5.1875 C0.6875 6.8375 0.6875 8.4875 0.6875 10.1875 C2.0075 9.8575 3.3275 9.5275 4.6875 9.1875 C4.3575 7.8675 4.0275 6.5475 3.6875 5.1875 C2.6975 5.1875 1.7075 5.1875 0.6875 5.1875 Z " fill="#F0999D" transform="translate(186.3125,28.8125)"/>
<path d="M0 0 C2.0625 0.4375 2.0625 0.4375 4 1 C4.33 3.64 4.66 6.28 5 9 C5.66 9 6.32 9 7 9 C7.33 6.03 7.66 3.06 8 0 C9.32 0 10.64 0 12 0 C12 7.59 12 15.18 12 23 C10.68 23 9.36 23 8 23 C8 20.03 8 17.06 8 14 C6.68 14 5.36 14 4 14 C4 16.97 4 19.94 4 23 C2.35 23 0.7 23 -1 23 C-1.02887512 19.35418313 -1.04675585 15.70839537 -1.0625 12.0625 C-1.07087891 11.02158203 -1.07925781 9.98066406 -1.08789062 8.90820312 C-1.09272461 7.42416992 -1.09272461 7.42416992 -1.09765625 5.91015625 C-1.10289307 4.99371338 -1.10812988 4.07727051 -1.11352539 3.13305664 C-1 1 -1 1 0 0 Z " fill="#F1A0A4" transform="translate(167,29)"/>
<path d="M0 0 C2.0625 0.4375 2.0625 0.4375 4 1 C4 3.31 4 5.62 4 8 C4.99 8.33 5.98 8.66 7 9 C7.33 6.03 7.66 3.06 8 0 C9.32 0 10.64 0 12 0 C12 7.59 12 15.18 12 23 C10.68 23 9.36 23 8 23 C8 20.03 8 17.06 8 14 C6.68 14.33 5.36 14.66 4 15 C4 17.31 4 19.62 4 22 C2.35 22.33 0.7 22.66 -1 23 C-1.02887512 19.35418313 -1.04675585 15.70839537 -1.0625 12.0625 C-1.07087891 11.02158203 -1.07925781 9.98066406 -1.08789062 8.90820312 C-1.09272461 7.42416992 -1.09272461 7.42416992 -1.09765625 5.91015625 C-1.10289307 4.99371338 -1.10812988 4.07727051 -1.11352539 3.13305664 C-1 1 -1 1 0 0 Z " fill="#F09A9D" transform="translate(105,29)"/>
<path d="M0 0 C3.41085539 1.70542769 5.07508103 2.8190993 7.671875 5.40625 C8.66767578 6.39818359 8.66767578 6.39818359 9.68359375 7.41015625 C10.36550781 8.09980469 11.04742187 8.78945312 11.75 9.5 C12.44738281 10.18964844 13.14476562 10.87929687 13.86328125 11.58984375 C14.52199219 12.25113281 15.18070313 12.91242187 15.859375 13.59375 C16.46233398 14.19896484 17.06529297 14.80417969 17.68652344 15.42773438 C19 17 19 17 19 19 C16.3671875 19.34375 16.3671875 19.34375 13 19 C10.76809329 17.20515074 9.01779083 15.59338551 7.125 13.5 C6.62742187 12.97535156 6.12984375 12.45070313 5.6171875 11.91015625 C4.39736085 10.61995498 3.19669751 9.31168268 2 8 C-3.93822231 10.65757515 -8.44393455 14.55735677 -12 20 C-13.60465423 25.79660025 -13.09098544 31.98758645 -12.875 37.9375 C-12.82105802 40.33623225 -12.78161474 42.73367338 -12.76394653 45.13294983 C-12.74972878 46.61581334 -12.71298475 48.0986777 -12.65084839 49.58030701 C-12.55767402 54.53808742 -12.55767402 54.53808742 -14.89111328 56.97485352 C-17 58 -17 58 -19 58 C-19 57.34 -19 56.68 -19 56 C-17.35 55.34 -15.7 54.68 -14 54 C-14.06807861 53.00782471 -14.13615723 52.01564941 -14.20629883 50.9934082 C-16.10062792 20.85315175 -16.10062792 20.85315175 -11.17578125 13.8515625 C-8.16134645 10.59859676 -4.79837319 8.26047145 -1 6 C1.05270463 4.15811388 1.05270463 4.15811388 2 2 C-4.33480354 7.34388455 -10.19539034 13.08833812 -16 19 C-16.66 18.67 -17.32 18.34 -18 18 C-12.06 12.06 -6.12 6.12 0 0 Z " fill="#F4B6B9" transform="translate(32,4)"/>
<path d="M0 0 C1.32 0.33 2.64 0.66 4 1 C4.33 6.61 4.66 12.22 5 18 C5.99 18.33 6.98 18.66 8 19 C8 13.06 8 7.12 8 1 C9.32 0.67 10.64 0.34 12 0 C13.55693041 3.11386082 13.22567195 6.39744932 13.25 9.8125 C13.270625 10.52470703 13.29125 11.23691406 13.3125 11.97070312 C13.34584387 16.47629381 12.94392624 19.50915168 10 23 C4.14706851 23.83613307 4.14706851 23.83613307 1.29956055 21.76049805 C-0.3860788 19.47698399 -0.34682349 18.15042909 -0.29296875 15.33203125 C-0.28330078 14.43935547 -0.27363281 13.54667969 -0.26367188 12.62695312 C-0.23853516 11.69818359 -0.21339844 10.76941406 -0.1875 9.8125 C-0.17396484 8.87212891 -0.16042969 7.93175781 -0.14648438 6.96289062 C-0.11113096 4.64134962 -0.06178674 2.32096347 0 0 Z " fill="#F2ABAE" transform="translate(136,29)"/>
<path d="M0 0 C3.36008858 1.14385994 4.36214938 1.84929875 5.9375 5 C6.125 7.75 6.125 7.75 5.9375 10 C4.2875 9.67 2.6375 9.34 0.9375 9 C0.9375 7.68 0.9375 6.36 0.9375 5 C-0.0525 5.33 -1.0425 5.66 -2.0625 6 C-1.32297893 9.2800323 -1.32297893 9.2800323 1.9375 10.875 C4.9375 13 4.9375 13 6 15.4375 C5.91543708 18.90457985 5.28421051 20.43328538 2.9375 23 C-0.59526383 23.50468055 -2.90251228 23.71096021 -6 21.8125 C-7.39101983 19.43958382 -7.28167317 17.70313576 -7.0625 15 C-5.7425 15 -4.4225 15 -3.0625 15 C-2.7325 15.99 -2.4025 16.98 -2.0625 18 C-1.4025 18 -0.7425 18 -0.0625 18 C0.2675 17.01 0.5975 16.02 0.9375 15 C-0.01125 14.731875 -0.96 14.46375 -1.9375 14.1875 C-5.0625 13 -5.0625 13 -7.0625 10 C-7.52693597 6.3619182 -7.49093764 4.64265646 -5.4375 1.5625 C-3.0625 0 -3.0625 0 0 0 Z " fill="#EE9195" transform="translate(158.0625,29)"/>
<path d="M0 0 C1.37478516 0.01740234 1.37478516 0.01740234 2.77734375 0.03515625 C3.69644531 0.04417969 4.61554688 0.05320312 5.5625 0.0625 C6.27277344 0.07410156 6.98304688 0.08570312 7.71484375 0.09765625 C7.71484375 1.74765625 7.71484375 3.39765625 7.71484375 5.09765625 C5.73484375 5.09765625 3.75484375 5.09765625 1.71484375 5.09765625 C1.71484375 6.74765625 1.71484375 8.39765625 1.71484375 10.09765625 C3.69484375 9.76765625 5.67484375 9.43765625 7.71484375 9.09765625 C7.71484375 10.74765625 7.71484375 12.39765625 7.71484375 14.09765625 C5.73484375 14.09765625 3.75484375 14.09765625 1.71484375 14.09765625 C1.71484375 15.74765625 1.71484375 17.39765625 1.71484375 19.09765625 C3.69484375 18.76765625 5.67484375 18.43765625 7.71484375 18.09765625 C7.71484375 19.74765625 7.71484375 21.39765625 7.71484375 23.09765625 C4.08484375 23.09765625 0.45484375 23.09765625 -3.28515625 23.09765625 C-3.31198612 19.45177456 -3.33191194 15.80608779 -3.34765625 12.16015625 C-3.35603516 11.11923828 -3.36441406 10.07832031 -3.37304688 9.00585938 C-3.37788086 7.52182617 -3.37788086 7.52182617 -3.3828125 6.0078125 C-3.38804932 5.09136963 -3.39328613 4.17492676 -3.39868164 3.23071289 C-3.23986073 0.24658749 -2.99028935 0.12779014 0 0 Z " fill="#F1A1A5" transform="translate(215.28515625,28.90234375)"/>
<path d="M0 0 C1.37478516 0.01740234 1.37478516 0.01740234 2.77734375 0.03515625 C3.69644531 0.04417969 4.61554688 0.05320312 5.5625 0.0625 C6.27277344 0.07410156 6.98304688 0.08570312 7.71484375 0.09765625 C7.71484375 1.74765625 7.71484375 3.39765625 7.71484375 5.09765625 C5.73484375 5.09765625 3.75484375 5.09765625 1.71484375 5.09765625 C1.71484375 6.74765625 1.71484375 8.39765625 1.71484375 10.09765625 C3.69484375 9.76765625 5.67484375 9.43765625 7.71484375 9.09765625 C7.71484375 10.74765625 7.71484375 12.39765625 7.71484375 14.09765625 C5.73484375 14.09765625 3.75484375 14.09765625 1.71484375 14.09765625 C1.71484375 15.74765625 1.71484375 17.39765625 1.71484375 19.09765625 C3.69484375 18.76765625 5.67484375 18.43765625 7.71484375 18.09765625 C7.71484375 19.74765625 7.71484375 21.39765625 7.71484375 23.09765625 C4.08484375 23.09765625 0.45484375 23.09765625 -3.28515625 23.09765625 C-3.31198612 19.45177456 -3.33191194 15.80608779 -3.34765625 12.16015625 C-3.35603516 11.11923828 -3.36441406 10.07832031 -3.37304688 9.00585938 C-3.37788086 7.52182617 -3.37788086 7.52182617 -3.3828125 6.0078125 C-3.38804932 5.09136963 -3.39328613 4.17492676 -3.39868164 3.23071289 C-3.23986073 0.24658749 -2.99028935 0.12779014 0 0 Z " fill="#F09DA1" transform="translate(201.28515625,28.90234375)"/>
<path d="M0 0 C1.65 0 3.3 0 5 0 C5.67332993 3.08191704 6.33748859 6.1657408 7 9.25 C7.19078125 10.12269531 7.3815625 10.99539062 7.578125 11.89453125 C7.75859375 12.73886719 7.9390625 13.58320312 8.125 14.453125 C8.29257813 15.22817383 8.46015625 16.00322266 8.6328125 16.80175781 C9 19 9 19 9 23 C7.783125 22.814375 6.56625 22.62875 5.3125 22.4375 C1.95655808 21.92557666 -0.69633066 22.21892231 -4 23 C-3.54593375 15.04601192 -2.12888539 7.67202093 0 0 Z M2 9 C1.67 11.64 1.34 14.28 1 17 C1.66 17 2.32 17 3 17 C3 14.36 3 11.72 3 9 C2.67 9 2.34 9 2 9 Z " fill="#F09CA0" transform="translate(81,29)"/>
<path d="M0 0 C1.093125 0.00257812 2.18625 0.00515625 3.3125 0.0078125 C4.405625 0.00523438 5.49875 0.00265625 6.625 0 C9.3125 0.1328125 9.3125 0.1328125 10.3125 1.1328125 C10.41129565 2.9430975 10.44221514 4.75733977 10.4375 6.5703125 C10.44007812 7.55902344 10.44265625 8.54773438 10.4453125 9.56640625 C10.3125 12.1328125 10.3125 12.1328125 9.3125 14.1328125 C8.6525 14.1328125 7.9925 14.1328125 7.3125 14.1328125 C6.9825 11.1628125 6.6525 8.1928125 6.3125 5.1328125 C4.6625 4.8028125 3.0125 4.4728125 1.3125 4.1328125 C1.34730469 5.18082031 1.38210937 6.22882812 1.41796875 7.30859375 C1.44610937 8.68748397 1.47340924 10.06639152 1.5 11.4453125 C1.53770508 12.48075195 1.53770508 12.48075195 1.57617188 13.53710938 C1.65084499 18.68955433 1.65084499 18.68955433 -0.19921875 21.11328125 C-0.69035156 21.44972656 -1.18148438 21.78617188 -1.6875 22.1328125 C-3.6875 20.1328125 -3.6875 20.1328125 -3.93041992 18.17749023 C-3.92631104 17.39833252 -3.92220215 16.6191748 -3.91796875 15.81640625 C-3.91603516 14.97013672 -3.91410156 14.12386719 -3.91210938 13.25195312 C-3.89986328 12.36701172 -3.88761719 11.48207031 -3.875 10.5703125 C-3.87435547 9.68150391 -3.87371094 8.79269531 -3.87304688 7.87695312 C-3.82026774 0.1887923 -3.82026774 0.1887923 0 0 Z " fill="#E9A6A9" transform="translate(30.6875,32.8671875)"/>
<path d="M0 0 C3.96 0 7.92 0 12 0 C12 1.65 12 3.3 12 5 C10.68 5 9.36 5 8 5 C8 10.94 8 16.88 8 23 C6.68 23 5.36 23 4 23 C4 17.06 4 11.12 4 5 C2.35 5 0.7 5 -1 5 C-0.67 3.35 -0.34 1.7 0 0 Z " fill="#F2ADB0" transform="translate(90,29)"/>
<path d="M0 0 C8.16026711 -0.31385643 8.16026711 -0.31385643 11 2 C12.96176104 6.20377365 13.00245371 8.58920369 12 13 C11.90236867 16.33488065 11.94171007 19.66452064 12 23 C10.68 23 9.36 23 8 23 C8 19.7 8 16.4 8 13 C8.66 13 9.32 13 10 13 C9.88658466 10.59122743 9.88658466 10.59122743 9 8 C6.53884453 6.15565651 6.53884453 6.15565651 4 5 C4 6.65 4 8.3 4 10 C3.34 9.67 2.68 9.34 2 9 C2.33 6.69 2.66 4.38 3 2 C2.01 1.34 1.02 0.68 0 0 Z " fill="#F2AAAD" transform="translate(183,29)"/>
<path d="M0 0 C1.37478516 0.01740234 1.37478516 0.01740234 2.77734375 0.03515625 C3.69644531 0.04417969 4.61554688 0.05320312 5.5625 0.0625 C6.27277344 0.07410156 6.98304688 0.08570312 7.71484375 0.09765625 C7.71484375 1.74765625 7.71484375 3.39765625 7.71484375 5.09765625 C5.73484375 5.09765625 3.75484375 5.09765625 1.71484375 5.09765625 C1.71484375 6.74765625 1.71484375 8.39765625 1.71484375 10.09765625 C1.05484375 9.76765625 0.39484375 9.43765625 -0.28515625 9.09765625 C-0.28515625 7.11765625 -0.28515625 5.13765625 -0.28515625 3.09765625 C-0.94515625 2.76765625 -1.60515625 2.43765625 -2.28515625 2.09765625 C-2.28515625 8.69765625 -2.28515625 15.29765625 -2.28515625 22.09765625 C0.68484375 22.09765625 3.65484375 22.09765625 6.71484375 22.09765625 C6.71484375 21.10765625 6.71484375 20.11765625 6.71484375 19.09765625 C6.05484375 18.76765625 5.39484375 18.43765625 4.71484375 18.09765625 C5.70484375 18.09765625 6.69484375 18.09765625 7.71484375 18.09765625 C7.71484375 19.74765625 7.71484375 21.39765625 7.71484375 23.09765625 C4.08484375 23.09765625 0.45484375 23.09765625 -3.28515625 23.09765625 C-3.31198612 19.45177456 -3.33191194 15.80608779 -3.34765625 12.16015625 C-3.35603516 11.11923828 -3.36441406 10.07832031 -3.37304688 9.00585938 C-3.37788086 7.52182617 -3.37788086 7.52182617 -3.3828125 6.0078125 C-3.38804932 5.09136963 -3.39328613 4.17492676 -3.39868164 3.23071289 C-3.23986073 0.24658749 -2.99028935 0.12779014 0 0 Z " fill="#F5C8CA" transform="translate(201.28515625,28.90234375)"/>
<path d="M0 0 C1.32 0 2.64 0 4 0 C4 7.59 4 15.18 4 23 C2.68 23 1.36 23 0 23 C-0.18451025 13.58997722 -0.18451025 13.58997722 1 9 C0.67 9 0.34 9 0 9 C0 6.03 0 3.06 0 0 Z " fill="#EE9195" transform="translate(175,29)"/>
<path d="M0 0 C3.625 0.25 3.625 0.25 5.5625 1.75 C5.913125 2.245 6.26375 2.74 6.625 3.25 C5.965 3.25 5.305 3.25 4.625 3.25 C4.955 4.9 5.285 6.55 5.625 8.25 C3.975 7.26 2.325 6.27 0.625 5.25 C0.295 6.57 -0.035 7.89 -0.375 9.25 C-1.035 7.27 -1.695 5.29 -2.375 3.25 C-2.705 9.52 -3.035 15.79 -3.375 22.25 C-2.385 22.25 -1.395 22.25 -0.375 22.25 C-0.375 19.28 -0.375 16.31 -0.375 13.25 C0.945 13.58 2.265 13.91 3.625 14.25 C2.635 14.25 1.645 14.25 0.625 14.25 C0.625 17.22 0.625 20.19 0.625 23.25 C-1.025 23.25 -2.675 23.25 -4.375 23.25 C-4.40387512 19.60418313 -4.42175585 15.95839537 -4.4375 12.3125 C-4.44587891 11.27158203 -4.45425781 10.23066406 -4.46289062 9.15820312 C-4.46772461 7.67416992 -4.46772461 7.67416992 -4.47265625 6.16015625 C-4.47789307 5.24371338 -4.48312988 4.32727051 -4.48852539 3.38305664 C-4.2998607 -0.16181095 -3.66642576 0.27158709 0 0 Z " fill="#F3B3B6" transform="translate(124.375,28.75)"/>
<path d="M0 0 C1.32 0 2.64 0 4 0 C4.33 1.98 4.66 3.96 5 6 C4.34 6 3.68 6 3 6 C3 11.28 3 16.56 3 22 C2.01 22 1.02 22 0 22 C0 14.74 0 7.48 0 0 Z " fill="#EE8085" transform="translate(60,29)"/>
<path d="M0 0 C1.65 0 3.3 0 5 0 C5.67332993 3.08191704 6.33748859 6.1657408 7 9.25 C7.19078125 10.12269531 7.3815625 10.99539062 7.578125 11.89453125 C7.75859375 12.73886719 7.9390625 13.58320312 8.125 14.453125 C8.29257813 15.22817383 8.46015625 16.00322266 8.6328125 16.80175781 C9 19 9 19 9 23 C7.35 22.67 5.7 22.34 4 22 C4.33 21.34 4.66 20.68 5 20 C5.0689472 18.62657169 5.08467708 17.24997898 5.0625 15.875 C5.041875 14.59625 5.02125 13.3175 5 12 C4.67 13.65 4.34 15.3 4 17 C3.34 15.68 2.68 14.36 2 13 C1.34 13.99 0.68 14.98 0 16 C0 13.36 0 10.72 0 8 C0.66 7.67 1.32 7.34 2 7 C2.99 7.33 3.98 7.66 5 8 C4.67 5.69 4.34 3.38 4 1 C2.68 0.67 1.36 0.34 0 0 Z " fill="#F3BBBE" transform="translate(81,29)"/>
<path d="M0 0 C2.43044773 2.26841789 2.96070783 3.42371483 3.1875 6.75 C3.125625 7.4925 3.06375 8.235 3 9 C1.35 8.67 -0.3 8.34 -2 8 C-2 6.68 -2 5.36 -2 4 C-5.0745356 4.7763932 -5.0745356 4.7763932 -7 7 C-6.67 5.68 -6.34 4.36 -6 3 C-6.66 2.67 -7.32 2.34 -8 2 C-8 1.34 -8 0.68 -8 0 C-5.03475663 -1.48262169 -3.14877613 -0.83538959 0 0 Z " fill="#F2A6AA" transform="translate(161,30)"/>
<path d="M0 0 C1.4540625 0.0309375 1.4540625 0.0309375 2.9375 0.0625 C1.9475 0.7225 0.9575 1.3825 -0.0625 2.0625 C-0.3925 3.0525 -0.7225 4.0425 -1.0625 5.0625 C-0.299375 5.330625 0.46375 5.59875 1.25 5.875 C3.81130884 7.00674112 5.13442938 7.97473401 6.9375 10.0625 C5.9475 10.0625 4.9575 10.0625 3.9375 10.0625 C3.9375 10.7225 3.9375 11.3825 3.9375 12.0625 C-1.8125 10.4375 -1.8125 10.4375 -4.0625 7.0625 C-4.25 3.9375 -4.25 3.9375 -4.0625 1.0625 C-3.0625 0.0625 -3.0625 0.0625 0 0 Z " fill="#ED8387" transform="translate(155.0625,31.9375)"/>
<path d="M0 0 C0.99 0 1.98 0 3 0 C3 5.94 3 11.88 3 18 C2.01 18 1.02 18 0 18 C0 12.06 0 6.12 0 0 Z " fill="#E9676C" transform="translate(136,29)"/>
<path d="M0 0 C0 1.32 0 2.64 0 4 C-1.62766709 5.06229827 -3.3046661 6.04941032 -5 7 C-6.99870868 8.86384305 -8.91715089 10.72635773 -10.8125 12.6875 C-11.31458984 13.19861328 -11.81667969 13.70972656 -12.33398438 14.23632812 C-13.56063509 15.48634362 -14.78097491 16.7425468 -16 18 C-16.33 17.01 -16.66 16.02 -17 15 C-14.54976242 12.49195282 -12.08852402 9.9949924 -9.625 7.5 C-8.57699219 6.42685547 -8.57699219 6.42685547 -7.5078125 5.33203125 C-6.8375 4.65527344 -6.1671875 3.97851562 -5.4765625 3.28125 C-4.85861816 2.65283203 -4.24067383 2.02441406 -3.60400391 1.37695312 C-2 0 -2 0 0 0 Z " fill="#E96469" transform="translate(34,6)"/>
<path d="M0 0 C0.33 0 0.66 0 1 0 C1 5.94 1 11.88 1 18 C0.01 18 -0.98 18 -2 18 C-2 13.05 -2 8.1 -2 3 C-1.34 3 -0.68 3 0 3 C0 2.01 0 1.02 0 0 Z " fill="#E86268" transform="translate(96,33)"/>
<path d="M0 0 C3.67230705 3.07999946 4.56802365 5.2482602 5 10 C4.01 10 3.02 10 2 10 C1.67 9.34 1.34 8.68 1 8 C0.67 12.62 0.34 17.24 0 22 C-1.32 21.67 -2.64 21.34 -4 21 C-3.01 21 -2.02 21 -1 21 C-1 15.72 -1 10.44 -1 5 C-0.34 5 0.32 5 1 5 C0.67 3.35 0.34 1.7 0 0 Z " fill="#F0ADAF" transform="translate(64,30)"/>
<path d="M0 0 C0.33 0.66 0.66 1.32 1 2 C1.99 2 2.98 2 4 2 C4 5.3 4 8.6 4 12 C2.35 11.67 0.7 11.34 -1 11 C-1.0270043 9.54176788 -1.04639787 8.08339325 -1.0625 6.625 C-1.07410156 5.81289063 -1.08570312 5.00078125 -1.09765625 4.1640625 C-1 2 -1 2 0 0 Z " fill="#EF9296" transform="translate(129,40)"/>
<path d="M0 0 C0.33 0 0.66 0 1 0 C1.03867188 1.77117188 1.03867188 1.77117188 1.078125 3.578125 C1.13441397 5.13545323 1.19176114 6.69274347 1.25 8.25 C1.26417969 9.02730469 1.27835938 9.80460937 1.29296875 10.60546875 C1.49349071 15.46616491 1.49349071 15.46616491 4.046875 19.546875 C5.01367188 20.26617187 5.01367188 20.26617187 6 21 C3.69 21 1.38 21 -1 21 C-1.66 19.68 -2.32 18.36 -3 17 C-2.01 17 -1.02 17 0 17 C0 11.39 0 5.78 0 0 Z " fill="#EFA4A7" transform="translate(139,30)"/>
<path d="M0 0 C1.32 0 2.64 0 4 0 C4 3.3 4 6.6 4 10 C2.68 10 1.36 10 0 10 C0 6.7 0 3.4 0 0 Z " fill="#EE8F93" transform="translate(191,42)"/>
<path d="M0 0 C0.66 0 1.32 0 2 0 C2.33 1.32 2.66 2.64 3 4 C5.97 4.495 5.97 4.495 9 5 C9 5.99 9 6.98 9 8 C6.03 8 3.06 8 0 8 C0 5.36 0 2.72 0 0 Z " fill="#E96166" transform="translate(199,43)"/>
<path d="M0 0 C1.32 0 2.64 0 4 0 C4.33 2.31 4.66 4.62 5 7 C3.68 7 2.36 7 1 7 C0.34 7.66 -0.32 8.32 -1 9 C-1.09765625 2.84765625 -1.09765625 2.84765625 -1 1 C-0.67 0.67 -0.34 0.34 0 0 Z " fill="#EB666B" transform="translate(81,30)"/>
<path d="M0 0 C0.33 0 0.66 0 1 0 C1.02696365 1.79158489 1.04637917 3.58328473 1.0625 5.375 C1.07410156 6.37273438 1.08570313 7.37046875 1.09765625 8.3984375 C1 11 1 11 0 13 C-0.66 13 -1.32 13 -2 13 C-2 10.03 -2 7.06 -2 4 C-1.34 4 -0.68 4 0 4 C0 2.68 0 1.36 0 0 Z " fill="#C4C8CB" transform="translate(40,34)"/>
<path d="M0 0 C0.66 0.33 1.32 0.66 2 1 C2 3.64 2 6.28 2 9 C1.01 9.495 1.01 9.495 0 10 C0 9.34 0 8.68 0 8 C-1.32 7.67 -2.64 7.34 -4 7 C-2.68 6.67 -1.36 6.34 0 6 C0 4.02 0 2.04 0 0 Z " fill="#E85B60" transform="translate(85,40)"/>
<path d="M0 0 C1.32 0.33 2.64 0.66 4 1 C3.34 3.64 2.68 6.28 2 9 C1.34 9 0.68 9 0 9 C0 6.03 0 3.06 0 0 Z " fill="#EA595F" transform="translate(183,30)"/>
<path d="M0 0 C1.32 0 2.64 0 4 0 C4 0.99 4 1.98 4 3 C1.03 3 -1.94 3 -5 3 C-5 2.67 -5 2.34 -5 2 C-3.35 2 -1.7 2 0 2 C0 1.34 0 0.68 0 0 Z " fill="#E8666B" transform="translate(218,48)"/>
<path d="M0 0 C0.99 0 1.98 0 3 0 C3 2.31 3 4.62 3 7 C2.01 6.67 1.02 6.34 0 6 C0 4.02 0 2.04 0 0 Z " fill="#E9656A" transform="translate(129,32)"/>
<path d="M0 0 C0.99 0.33 1.98 0.66 3 1 C2.67 3.31 2.34 5.62 2 8 C1.34 8 0.68 8 0 8 C0 5.36 0 2.72 0 0 Z " fill="#EA595F" transform="translate(199,31)"/>
</svg>
